PathFileType	4	(X/Y/Z)	T1_P1_NoVision_Movement_2_0-680.trc
DataRate	CameraRate	NumFrames	NumMarkers	Units	OrigDataRate	OrigDataStartFrame	OrigNumFrames
60	60	5	27	m	60	510	680
Frame#	Time	RHip			RKnee			RAnkle			RBigToe			RSmallToe			RHeel			LHip			LKnee			LAnkle			LBigToe			LSmallToe			LHeel			Neck			Head			Nose			RShoulder			RElbow			RWrist			RThumb			RIndex			RPinky			LShoulder			LElbow			LWrist			LThumb			LIndex			LPinky		
		X1	Y1	Z1	X2	Y2	Z2	X3	Y3	Z3	X4	Y4	Z4	X5	Y5	Z5	X6	Y6	Z6	X7	Y7	Z7	X8	Y8	Z8	X9	Y9	Z9	X10	Y10	Z10	X11	Y11	Z11	X12	Y12	Z12	X13	Y13	Z13	X14	Y14	Z14	X15	Y15	Z15	X16	Y16	Z16	X17	Y17	Z17	X18	Y18	Z18	X19	Y19	Z19	X20	Y20	Z20	X21	Y21	Z21	X22	Y22	Z22	X23	Y23	Z23	X24	Y24	Z24	X25	Y25	Z25	X26	Y26	Z26	X27	Y27	Z27
511	8.516666666666667	-83.23850227252336	3859.7018131607424	-581.6158727198972	263.22908601900986	3996.308602928922	-537.1032220097974	624.9630897320664	4149.45334236868	-524.01354528952	696.2399718614819	4091.214492432812	-476.4273118051465	706.5764229889951	4099.181837770703	-540.8541845913429	656.1411481919976	4194.7004577913085	-532.0329302413135	-113.80568422254404	3902.8044922130794	-364.2942036527819	222.91262587573516	4010.2506055367785	-360.6463447019348	583.8562328512984	4197.553535704338	-382.0966256391157	668.3884781798247	4153.857749268347	-344.4655776740438	639.3424521536629	4217.70634195534	-333.060983356659	599.7660912287982	4230.885027349216	-408.43565373452793	-687.0972110644274	3720.714005522183	-482.90830019377125	-912.1598240933042	3542.17044171553	-431.5967354100196	-743.454391352106	3586.4230041709234	-425.4684876628654	-580.0850459853432	3673.4648344146485	-626.5129803290188	-380.4638349919841	3541.288902564432	-629.7030829491215	-539.8814605917372	3379.576526278331	-485.90340502220045	-654.040641504733	3397.7081096151433	-446.1600412162194	-661.4637949745158	3374.3540608547028	-423.7977178057657	-623.3407531378259	3270.9103153346623	-404.449629069219	-638.5621087925056	3881.3044497722913	-392.8319218251578	-395.3709268039523	4010.1874242292365	-344.83051955611154	-134.75239632113747	3990.4799991823647	-243.25062958842477	-10.884906891803219	3966.711869250705	-232.82229976553543	13.62995768535229	3986.7173796308844	-220.76919265672157	-1.715707547391628	4010.4386431264516	-224.85796388114585
512	8.533333333333333	-83.2559725856385	3860.1076005184077	-581.7071732386795	265.8984143712616	4017.4385871387535	-552.6373024921093	624.861211419547	4148.676508528122	-523.8868485733308	696.0975443901068	4090.560495297637	-476.1901497804685	701.2362875827074	4067.190005221503	-533.4342227860265	656.135594565388	4193.654092943848	-531.8874100447769	-108.13582853290409	3905.169904025617	-363.86533760890507	222.80144513007193	4010.540526163574	-360.83442268947147	583.7476291600738	4198.056176840746	-382.27096203341216	663.1587535075315	4154.527237927069	-344.9247959222232	639.4663558516382	4217.550227307347	-332.80584543035803	604.8274196532612	4253.314922718289	-422.7299635435264	-686.8169638348021	3720.2552494718193	-482.9755302990953	-912.1730957883276	3542.117841347995	-431.5818807741461	-747.7165887552719	3583.498344484702	-424.40143804162284	-584.6787326953494	3671.9147785180935	-626.4490171466041	-383.03237838491674	3568.365252494572	-645.2652602319538	-532.5265664535793	3383.2116280871996	-485.64098874583794	-649.2432709359291	3398.2002572874853	-446.86315997064264	-660.9720999142173	3372.970869967628	-423.7370013486088	-620.8493511211427	3258.5138436025286	-401.9485627194543	-638.5905632397006	3880.75188221188	-392.72393521797864	-395.3676965215333	4010.2619214653114	-344.84244704226364	-140.3765501726536	3988.835477588099	-244.12144770376264	-10.697827901547232	3966.8873994084606	-233.0340228710378	13.698513858823429	3986.9215023649544	-221.0230700268162	-0.5385684649379557	4029.1413274606916	-236.64739855848381
513	8.55	-83.22597636629432	3859.8493695796355	-581.6836364051945	256.9213039017903	3991.5843871761963	-534.5909491588748	624.6740779714032	4149.126862992983	-523.87221774545	695.8897387851787	4090.7557129104157	-476.3824002436279	706.085544605292	4099.061387733268	-540.8923191889618	656.0367964467235	4194.590848690072	-532.092091258195	-108.14142804796042	3905.2025498014755	-363.9291283443932	222.6245222327989	4009.8370381114955	-360.4063859659194	572.3487644832402	4194.0777633126645	-380.6602587313899	668.8200511989614	4157.946487228268	-344.44094224490334	639.3229591798745	4217.425707483456	-332.81556997221367	606.6048358538546	4234.744159677987	-407.80417418708896	-686.9468470296824	3720.5615689634483	-482.8846283513253	-912.1807506229895	3541.9629700650476	-431.4019830273883	-747.625269396522	3583.154412683206	-424.0156824621106	-580.0000044544897	3673.079143501574	-625.855725526141	-360.82891037676603	3549.2675205525316	-638.6975701635905	-535.7551045491244	3380.6344415588947	-480.6110471471469	-649.6492112761176	3402.987141528331	-447.80426707087014	-659.4268339172635	3363.791667464118	-412.3419797680467	-621.983705091919	3294.4946885017534	-409.76249933135125	-638.5120321719313	3880.924606170087	-392.6179780115687	-395.3392545022003	4010.418850954858	-345.0367958074398	-140.40605817094928	3988.892372604016	-244.15699378770324	-8.692151971241696	3989.8674387357387	-253.14420212246299	8.062554799560083	3985.3552016988565	-222.07517228122882	-1.8448292374091804	4011.49436396143	-225.56835558388812
514	8.566666666666666	-83.26225602419584	3859.9342308152354	-581.6602837973794	265.9575588229071	4017.47508110277	-552.6084320648844	624.939352512544	4148.9490861985505	-523.9352203387895	697.1850517703539	4096.126036364802	-479.2456602920172	701.2412991474843	4099.302118497191	-541.3481853748838	656.1519442508961	4194.258766440139	-532.0710594358706	-108.96274267830323	3906.310720260597	-365.83109085259247	222.84115956597532	4010.4540461288034	-360.75560930985705	572.001332550854	4194.834368549379	-383.4763737663242	663.0442889407194	4154.248066334947	-344.86691875854814	633.2067792182321	4214.1608697129905	-333.5113724493333	604.6183502922928	4252.725151463733	-422.55628965940457	-686.752332542632	3720.0192077964134	-482.7575055523577	-907.4600005344388	3542.7392812415187	-431.16717368369746	-747.9042904424783	3582.203978926476	-418.091218310822	-580.1758728838797	3673.5867873683214	-626.4745805945541	-362.5076381777688	3591.7874103862546	-660.2699985673491	-508.1296358117305	3370.2883245538274	-474.3262666857882	-628.1709511202333	3395.0002306360234	-442.4974690991701	-612.188470865428	3300.524370537911	-393.3247581485483	-613.8383831212873	3259.1607936085165	-401.06884636312526	-638.5398493873965	3880.9630808968295	-392.71531913494954	-395.31348568957833	4010.4407784453497	-344.89152004979576	-135.63976437055229	3992.078572244431	-245.35316747023083	-10.01905138781871	3969.0644258286925	-239.74715295988526	13.790436025922073	3986.047830056552	-220.70893913604593	-1.7998929788367037	4011.051939790223	-225.26433940155974
515	8.583333333333334	-83.14258926773644	3859.6596636815943	-581.5436987347184	257.1219113918102	3994.710520232441	-538.255344340155	624.7723071243206	4148.20802639175	-523.8095252365902	697.0352597292097	4095.710408790599	-479.1172543895296	695.9783297102813	4067.4175609758163	-534.0138189764508	656.007279192515	4193.389466317567	-531.8418694589403	-108.75459297671425	3906.011276931596	-365.67469631086317	222.90055294218806	4010.636357596081	-360.8038074702682	572.1364536474556	4195.307931229013	-383.63072898494653	663.2210332986258	4154.846528532083	-345.0591143784556	639.3786680435239	4217.829631217966	-332.89395499227845	604.6758039796852	4252.955277827015	-422.61579308552376	-687.0333448927926	3720.688418599608	-482.9558317406731	-908.7019561784064	3526.4071357749926	-419.2647986002368	-751.8424787851109	3579.5810512843464	-417.13543521037093	-578.0583705407845	3655.330215864812	-611.2964697089874	-344.91148838790315	3570.1921066447803	-652.1951809348631	-526.0471580939823	3385.014476782095	-481.1694355452754	-641.7768451397014	3412.823661723603	-439.8041117019632	-650.9674727173623	3366.3504546209133	-412.09683682496393	-586.4815184428716	3282.1467457848594	-401.9121085948249	-635.920006153586	3860.7276457685925	-378.4024662015206	-395.19932066435666	4010.372722003446	-344.8609597981055	-134.58546285551017	3990.999475377814	-243.47460751302216	-9.995497551406105	3969.679516138283	-239.99879808320125	13.39888709201451	3986.6688301189265	-220.97304345970247	-0.5710829993678772	4029.1769229681067	-236.66201993416908
